<svg xmlns="http://www.w3.org/2000/svg" xmlns:xlink="http://www.w3.org/1999/xlink" width="95" height="32"><defs><path id="A" d="M.002.01h12.736v15.185H.002z"/></defs><g transform="translate(3 1)" fill="none" fill-rule="evenodd"><path d="M20.374 29.08h-6.05v-4.378h6.05c2.15 0 3.9-1.75 3.9-3.903s-1.75-3.904-3.9-3.904H12.17V8.717c0-2.153-1.75-3.904-3.9-3.904a3.91 3.91 0 0 0-3.899 3.887v.307H0v-.316C.018 4.135 3.73.435 8.27.435a8.29 8.29 0 0 1 8.272 8.282v3.8h3.83a8.29 8.29 0 0 1 8.272 8.282 8.29 8.29 0 0 1-8.272 8.282" fill="#ffffff"/><path fill="#e94437" d="M11.468 29.08H0V11.855h4.368v12.843h7.1z"/><path d="M39.115 26.332c.22 0 .465-.018.73-.055a2.17 2.17 0 0 0 .731-.233 1.47 1.47 0 0 0 .554-.533c.147-.236.222-.555.222-.955 0-.37-.074-.67-.222-.9a1.5 1.5 0 0 0-.554-.521c-.22-.118-.465-.2-.73-.244a4.41 4.41 0 0 0-.73-.067h-1.993v3.507h1.993zm-.288-6.06c.457 0 .867-.115 1.23-.344s.543-.625.543-1.188a1.81 1.81 0 0 0-.155-.788c-.104-.215-.24-.38-.4-.5a1.69 1.69 0 0 0-.576-.255 2.67 2.67 0 0 0-.631-.078h-1.706v3.152h1.706zm-5.537-5.95h6.002c1.033 0 1.9.115 2.57.344s1.218.525 1.617.888a2.9 2.9 0 0 1 .83 1.243c.154.466.233.93.233 1.388 0 .43-.07.814-.2 1.154s-.318.64-.532.9a3.57 3.57 0 0 1-.698.655c-.25.177-.487.304-.7.378.28.1.6.222.93.4a3.9 3.9 0 0 1 .952.71 4.08 4.08 0 0 1 .753 1.066c.207.414.3.895.3 1.443 0 1.48-.513 2.557-1.54 3.23s-2.528 1-4.507 1h-6V14.323zm21.603 8.88l-1.64-5.44-1.705 5.44h3.344zm-3.742-8.88h4.495L60.87 29.13h-4.23l-.952-3.064H50.75l-.974 3.064h-4.052l5.425-14.806zm17.093 12c.22 0 .465-.018.73-.055a2.17 2.17 0 0 0 .73-.233c.22-.118.406-.296.554-.533s.222-.555.222-.955c0-.37-.074-.67-.222-.9a1.5 1.5 0 0 0-.554-.521 2.35 2.35 0 0 0-.731-.244 4.44 4.44 0 0 0-.731-.067H66.25v3.507h1.993zm-.288-6.06c.457 0 .867-.115 1.23-.344s.543-.625.543-1.188c0-.3-.052-.573-.155-.788s-.24-.38-.4-.5a1.69 1.69 0 0 0-.576-.255 2.67 2.67 0 0 0-.631-.078H66.25v3.152h1.705zm-5.537-5.95h6.002c1.033 0 1.9.115 2.57.344s1.218.525 1.617.888a2.9 2.9 0 0 1 .83 1.243 4.39 4.39 0 0 1 .232 1.388c0 .43-.07.814-.2 1.154a3.48 3.48 0 0 1-.532.899c-.214.26-.447.478-.697.655s-.488.304-.7.378c.28.1.6.222.93.4a4.34 4.34 0 0 1 .952.7 3.92 3.92 0 0 1 .753 1.066c.207.414.3.895.3 1.443 0 1.48-.513 2.557-1.54 3.23s-2.528 1-4.507 1h-6V14.323z" fill="#ffffff"/><g transform="translate(76.21 14.323)"><mask id="B" fill="#fff"><use xlink:href="#A"/></mask><path d="M.002.01h3.92v8.68c0 .814.188 1.48.564 1.998s1 .777 1.872.777 1.49-.262 1.86-.788.554-1.188.554-1.987V.01h3.965v9.035c0 .947-.155 1.802-.465 2.564a5.42 5.42 0 0 1-1.318 1.942 5.8 5.8 0 0 1-2.016 1.221c-.775.28-1.628.422-2.558.422s-1.787-.14-2.57-.422-1.458-.684-2.027-1.2-1.008-1.17-1.318-1.93-.465-1.624-.465-2.586V.01z" fill="#ffffff" mask="url(#B)"/></g><path d="M33.048.34h3.225v9.305h5.63v2.84h-8.855zm10.258 0h8.716v2.786H46.52V5h4.52v2.622h-4.52v2.076h5.883v2.786h-9.097zm16.512 5.2H64.8v5.485c-.726.62-1.558 1.066-2.495 1.34a10.03 10.03 0 0 1-2.822.41c-.98 0-1.86-.15-2.64-.446a5.49 5.49 0 0 1-1.987-1.276c-.545-.553-.96-1.224-1.243-2.014s-.426-1.677-.426-2.66c0-.923.154-1.777.463-2.56s.74-1.458 1.297-2.023S56.156.8 56.924.474 58.542 0 59.474 0c1.004 0 1.944.167 2.822.5s1.612.9 2.205 1.668l-2.087 2.114a5.6 5.6 0 0 0-1.207-.93c-.43-.243-.93-.365-1.497-.365-.52 0-.98.1-1.38.273a2.95 2.95 0 0 0-1.006.74 3.24 3.24 0 0 0-.626 1.093c-.145.42-.218.866-.218 1.34 0 .522.08.993.236 1.412s.375.778.653 1.075.617.528 1.016.692.847.246 1.343.246a4.36 4.36 0 0 0 1.143-.146c.363-.098.713-.267 1.052-.5V8.036h-2.105V5.54zm13.418 2.082L71.9 3.16l-1.4 4.46h2.745zM70.164.34h3.7l4.3 12.145h-3.472L73.9 9.97h-4.054l-.8 2.513H65.7L70.164.34zm9.24 0h3.225v9.305h5.63v2.84h-8.855z" fill="#e94437"/></g></svg>