<svg xmlns="http://www.w3.org/2000/svg" xmlns:xlink="http://www.w3.org/1999/xlink" width="40" height="32">
  <defs><path id="A" d="M.002.01h12.736v15.185H.002z"/></defs>
  <g transform="translate(3 1)" fill="none" fill-rule="evenodd">
    <path d="M20.374 29.08h-6.05v-4.378h6.05c2.15 0 3.9-1.75 3.9-3.903s-1.75-3.904-3.9-3.904H12.17V8.717c0-2.153-1.75-3.904-3.9-3.904a3.91 3.91 0 0 0-3.899 3.887v.307H0v-.316C.018 4.135 3.73.435 8.27.435a8.29 8.29 0 0 1 8.272 8.282v3.8h3.83a8.29 8.29 0 0 1 8.272 8.282 8.29 8.29 0 0 1-8.272 8.282" fill="#182a52"/>
    <path fill="#9e1d20" d="M11.468 29.08H0V11.855h4.368v12.843h7.1z"/>
  </g>
</svg>
